<?xml version="1.0" encoding="UTF-8" standalone="no"?>
<!-- Created with Inkscape (http://www.inkscape.org/) -->

<svg
   width="64"
   height="64"
   viewBox="0 0 0.5203252 0.5203252"
   version="1.1"
   id="svg1"
   inkscape:version="1.3 (1:1.3+202307231459+0e150ed6c4)"
   sodipodi:docname="ketchup-logo.svg"
   inkscape:export-filename="ketchup-logo-24.png"
   inkscape:export-xdpi="37.718494"
   inkscape:export-ydpi="37.718494"
   xmlns:inkscape="http://www.inkscape.org/namespaces/inkscape"
   xmlns:sodipodi="http://sodipodi.sourceforge.net/DTD/sodipodi-0.dtd"
   xmlns="http://www.w3.org/2000/svg"
   xmlns:svg="http://www.w3.org/2000/svg">
  <sodipodi:namedview
     id="namedview1"
     pagecolor="#505050"
     bordercolor="#eeeeee"
     borderopacity="1"
     inkscape:showpageshadow="0"
     inkscape:pageopacity="0"
     inkscape:pagecheckerboard="0"
     inkscape:deskcolor="#d1d1d1"
     inkscape:document-units="mm"
     inkscape:zoom="8"
     inkscape:cx="18.4375"
     inkscape:cy="53.3125"
     inkscape:window-width="1920"
     inkscape:window-height="1016"
     inkscape:window-x="1920"
     inkscape:window-y="0"
     inkscape:window-maximized="1"
     inkscape:current-layer="layer1" />
  <defs
     id="defs1" />
  <g
     inkscape:label="Capa 1"
     inkscape:groupmode="layer"
     id="layer1">
    <path
       id="path3559"
       style="fill:#550000;stroke:none;stroke-width:0.00315628;stroke-linecap:round;stroke-linejoin:round;stroke-miterlimit:12.2"
       inkscape:transform-center-x="0.90354748"
       inkscape:transform-center-y="0.27994294"
       d="m 0.21796516,0.17219394 c -0.009118,2.8486e-4 -0.0178951,0.005212 -0.0230526,0.0127118 -0.003475,0.005085 -0.005327,0.0111244 -0.006054,0.0171986 -8.7352e-4,0.007392 -2.881e-4,0.0148753 9.5674e-4,0.0221862 8.8367e-4,0.005212 0.002139,0.0103531 0.003535,0.0154481 4.563e-5,8.5325e-4 -5.08e-4,0.00169 -0.001243,0.002095 -5.5144e-4,2.7641e-4 -0.001182,1.5138e-4 -0.001726,-7.333e-5 -0.0169543,-0.005357 -0.0341202,-0.0100915 -0.0515371,-0.0136903 -0.0109849,-0.002239 -0.0220947,-0.003996 -0.0332963,-0.004647 -0.0076185,-4.0162e-4 -0.01532162,-2.7034e-4 -0.0228277,0.001208 -0.0055118,0.001107 -0.01094744,0.003058 -0.0155245,0.006378 -0.0046532,0.003404 -0.0082535,0.00833 -0.0097493,0.0139198 -0.0015961,0.005737 -0.0011185,0.0120208 0.0013288,0.0174503 0.0024366,0.005635 0.0064109,0.0104536 0.01082482,0.0146565 0.0061301,0.005829 0.01322059,0.010528 0.02046579,0.0148432 0.0095659,0.005652 0.0196148,0.0104274 0.02979649,0.0148499 0.001016,5.3636e-4 0.001312,0.002019 6.0678e-4,0.002923 -3.8278e-4,6.2152e-4 -0.001163,6.6765e-4 -0.001785,8.9549e-4 -0.018526,0.005702 -0.03688461,0.0120469 -0.05466338,0.019798 -0.0098793,0.004342 -0.01958407,0.009162 -0.02865582,0.0150307 -0.0055811,0.003649 -0.01091321,0.007781 -0.01534406,0.0127928 -0.0034786,0.003962 -0.0063109,0.008616 -0.0075361,0.0137822 -0.0010353,0.004325 -8.6542e-4,0.009042 0.0010209,0.0131207 0.0019344,0.004207 0.0056139,0.007452 0.0098156,0.009292 0.0044222,0.001977 0.0092207,0.00294 0.01401607,0.003455 0.0073638,7.8322e-4 0.01479137,7.0804e-4 0.02217689,3.0903e-4 0.01044229,-5.8662e-4 0.02084987,-0.001698 0.03120673,-0.003142 0.0026892,-3.647e-4 0.0053727,-7.7579e-4 0.0080589,-0.001157 4.7203e-4,-1.758e-5 0.0010103,1.9717e-4 0.0011446,6.9223e-4 2.9953e-4,6.7373e-4 8.4195e-4,0.001411 5.3126e-4,0.002171 -2.4632e-4,4.126e-4 -7.0634e-4,6.3782e-4 -0.0010421,9.7101e-4 -0.0032967,0.002754 -0.006563,0.005542 -0.00968,0.008497 -0.0047758,0.004511 -0.0092907,0.00934 -0.01313997,0.0146768 -0.0030958,0.004351 -0.0057069,0.009147 -0.0069556,0.0143701 -0.0010524,0.004444 -9.6625e-4,0.009223 6.4284e-4,0.013527 0.0020889,0.005678 0.0065453,0.0103404 0.01192278,0.0130395 0.0046578,0.002366 0.009989,0.003109 0.01516408,0.00283 0.0059265,-2.9179e-4 0.01173116,-0.001757 0.01732675,-0.003675 0.006548,-0.002272 0.0128538,-0.005196 0.019003,-0.00838 0.0100873,-0.005246 0.0197346,-0.0112984 0.0291707,-0.0176319 0.006588,-0.004444 0.0130384,-0.00908 0.0194241,-0.0138041 6.6652e-4,-3.6047e-4 0.001495,-1.296e-4 0.002116,2.2395e-4 6.3066e-4,4.2056e-4 9.217e-4,0.001233 7.6376e-4,0.001969 -5.0078e-4,0.007621 -4.183e-4,0.0153264 8.5918e-4,0.0228739 9.9576e-4,0.005778 0.002794,0.0115113 0.005973,0.0164821 0.002934,0.00457 0.007105,0.008423 0.0121091,0.0106031 0.005109,0.002265 0.0108424,0.002898 0.0163673,0.002256 0.007037,-7.6124e-4 0.0137905,-0.003447 0.0196679,-0.007349 0.006865,-0.004529 0.0126496,-0.0105145 0.0176429,-0.0170076 0.004766,-0.006193 0.008833,-0.0128884 0.0124453,-0.0198055 1.7519e-4,-4.3254e-4 5.6389e-4,-7.1665e-4 0.001006,-8.3762e-4 4.5504e-4,-1.1506e-4 9.3519e-4,-2.7296e-4 0.001407,-1.9743e-4 8.3628e-4,2.4802e-4 0.001294,0.001056 0.001928,0.001597 0.0129969,0.0128114 0.0265467,0.0250923 0.040972,0.0362834 0.008875,0.006851 0.0181475,0.0132516 0.0281025,0.0184421 0.006566,0.003387 0.0135227,0.006193 0.0208468,0.007375 0.005208,8.1877e-4 0.0106552,6.3334e-4 0.0156583,-0.001132 0.005562,-0.001935 0.0104939,-0.005846 0.0133158,-0.0110525 0.002566,-0.004706 0.003214,-0.0103159 0.002254,-0.0155546 -9.872e-4,-0.00555 -0.003368,-0.0107459 -0.006189,-0.0155874 -0.004676,-0.007958 -0.0106629,-0.0150485 -0.0168302,-0.0218829 -4.0681e-4,-4.0687e-4 -8.9043e-4,-9.6245e-4 -6.7544e-4,-0.001589 4.1625e-4,-6.1882e-4 6.6256e-4,-0.001418 0.001332,-0.001825 6.8489e-4,-2.8411e-4 0.001365,1.845e-4 0.002004,3.8962e-4 0.0112858,0.003971 0.0226459,0.007747 0.0341712,0.0109655 0.008912,0.002475 0.0179124,0.004689 0.0270439,0.006201 0.006488,0.001039 0.0130635,0.001749 0.0196426,0.001504 0.005087,-2.0343e-4 0.0102413,-0.001021 0.0148708,-0.003227 0.003605,-0.001707 0.006789,-0.004368 0.00893,-0.007747 0.002205,-0.003404 0.003203,-0.007503 0.003183,-0.0115341 -1.434e-5,-0.004207 -0.00119,-0.008338 -0.003011,-0.0121018 -0.002369,-0.004892 -0.005747,-0.009221 -0.009428,-0.0131891 -0.00555,-0.005939 -0.0118974,-0.011072 -0.018409,-0.0159153 -0.0102716,-0.007579 -0.021182,-0.0142433 -0.0322501,-0.0205845 -0.007698,-0.004392 -0.0155156,-0.008582 -0.0234129,-0.0126104 -6.1879e-4,-4.7901e-4 -8.4733e-4,-0.001368 -6.823e-4,-0.002112 2.0941e-4,-7.0507e-4 7.9473e-4,-0.001309 0.001548,-0.001402 0.001833,-3.2145e-4 0.003649,-7.3464e-4 0.005476,-0.001098 0.0171713,-0.003557 0.0342517,-0.007621 0.0510445,-0.0126881 0.009827,-0.003007 0.0195563,-0.00642 0.0288714,-0.0107806 0.00556,-0.002636 0.0109776,-0.005694 0.0157158,-0.009652 0.003469,-0.002931 0.006541,-0.006488 0.008288,-0.0107282 0.001583,-0.003852 0.001982,-0.00822 9.1492e-4,-0.0122666 -0.001289,-0.005078 -0.004542,-0.009546 -0.008752,-0.0126155 -0.004405,-0.003269 -0.009603,-0.005281 -0.0148659,-0.006699 -0.007655,-0.002045 -0.0155717,-0.002872 -0.0234614,-0.003362 -0.0120577,-7.1639e-4 -0.0241499,-3.5938e-4 -0.0362009,3.1317e-4 -0.0196693,0.001123 -0.0392542,0.003396 -0.0587632,0.006099 -7.175e-4,1.2225e-4 -0.001543,3.1055e-4 -0.00217,-1.8417e-4 -8.6677e-4,-5.3662e-4 -0.001279,-0.001792 -6.7286e-4,-0.002669 0.00472,-0.006496 0.009096,-0.0132651 0.0127502,-0.0204231 0.002882,-0.005685 0.005286,-0.0116837 0.006348,-0.0179926 7.8101e-4,-0.004723 7.072e-4,-0.009687 -8.8029e-4,-0.0142459 -0.001502,-0.004435 -0.004464,-0.008321 -0.008226,-0.0110939 -0.003593,-0.002661 -0.007885,-0.004274 -0.0122731,-0.005018 -0.004192,-7.0288e-4 -0.008506,-5.4068e-4 -0.0126602,3.347e-4 -0.006642,0.001352 -0.0128815,0.004191 -0.0187383,0.007544 -0.008764,0.005044 -0.0167115,0.0113686 -0.0242748,0.0180475 -0.008251,0.007307 -0.0159806,0.015182 -0.0234035,0.0233225 -3.4442e-4,3.5339e-4 -6.5279e-4,8.1312e-4 -0.001187,8.7015e-4 -5.7873e-4,9.427e-5 -0.001215,6.522e-5 -0.001749,-1.862e-4 -7.1528e-4,-4.3601e-4 -8.6678e-4,-0.001309 -0.00114,-0.002028 -0.004845,-0.0131984 -0.0103765,-0.0261737 -0.017116,-0.0385248 -0.004067,-0.007384 -0.008659,-0.0145272 -0.0141897,-0.0209115 -0.004204,-0.004807 -0.009089,-0.009144 -0.0148303,-0.0120258 -0.00416,-0.002078 -0.008789,-0.003269 -0.013451,-0.003193 z" />
    <path
       id="path90"
       style="fill:#d40000;stroke:#aa0000;stroke-width:0.00315628;stroke-linecap:round;stroke-linejoin:round;stroke-miterlimit:12.2"
       inkscape:transform-center-x="0.90356032"
       inkscape:transform-center-y="0.2799606"
       d="m 0.47241166,0.4237646 c -0.004889,0.03579 -0.16185694,-0.035655 -0.16185694,-0.035655 0,0 0.0947266,0.0702251 0.0711196,0.0916472 -0.0267506,0.0242746 -0.11359021,-0.0698585 -0.11359021,-0.0698585 0,0 -0.0188047,0.0538461 -0.0506586,0.0550821 -0.0360955,0.001402 -0.0164766,-0.0722721 -0.0164766,-0.0722721 0,0 -0.0909334,0.0775986 -0.11612938,0.0580702 C 0.05626836,0.4286497 0.1561536,0.3719676 0.1561536,0.3719676 c 0,0 -0.13126729,0.0304712 -0.13349984,0.006538 -0.0022326,-0.0239324 0.06578559,-0.049943 0.1368208,-0.0683463 0,0 -0.10628573,-0.0333656 -0.09063464,-0.0650042 0.01601675,-0.032378 0.14346353,0.015307 0.14346353,0.015307 0,0 -0.029508,-0.0642482 2.1e-6,-0.0763044 0.0334395,-0.0136613 0.0625912,0.0884645 0.0625912,0.0884645 0,0 0.056303,-0.0722586 0.0866586,-0.0625248 0.0343978,0.0110289 -0.0280014,0.0764716 -0.0280014,0.0764716 0,0 0.14561249,-0.0271486 0.16260982,-1.8071e-4 0.0192607,0.0305591 -0.13933492,0.05401 -0.13933492,0.05401 0,0 0.11989667,0.0517814 0.11558281,0.0833663 z"
       sodipodi:nodetypes="scscscsczcscscscscs" />
    <g
       id="g8258"
       style="fill:#338000"
       transform="matrix(4.4816795e-4,0,0,4.4816795e-4,-0.14042968,0.16148161)">
      <path
         id="path5911"
         style="fill:#338000;stroke:#445016;stroke-width:7.04262;stroke-linecap:round;stroke-linejoin:round;stroke-miterlimit:12.2"
         inkscape:transform-center-x="-15.121691"
         inkscape:transform-center-y="1.7289611"
         transform="matrix(0.95521963,-0.11441312,0.44621677,0.99343326,521.21422,-200.80801)"
         d="m 193.95779,667.42469 c -10.3664,14.18549 -74.33376,-22.24047 -74.33376,-22.24047 0,0 -39.612079,60.81776 -50.506623,58.90017 -17.568615,-3.09232 -1.818451,-77.5683 -1.818451,-77.5683 0,0 -77.492815,-10.10394 -71.6247911,-29.8335 6.4416537,-21.65822 73.2099041,-25.69937 73.2099041,-25.69937 0,0 -15.942946,-74.30365 6.000344,-82.24359 l 47.304377,66.59052 c 0,0 71.68584,-27.85982 75.48137,-17.96419 4.48487,11.69286 -44.12235,63.82293 -44.12235,63.82293 0,0 53.44644,48.39659 40.40998,66.2358 z"
         sodipodi:nodetypes="scscscccscs" />
      <path
         id="rect4216"
         style="fill:#338000;stroke:#445016;stroke-width:7.04262;stroke-linecap:round;stroke-linejoin:round;stroke-miterlimit:12.2"
         d="m 852.37754,300.65995 c 23.47596,-5.95579 22.14855,-10.07215 31.9298,-23.51207 35.53463,40.39029 37.70974,60.62474 26.93315,105.12618 -19.47577,1.77896 -26.53852,4.57009 -33.66939,-10.54457 29.21263,-29.21263 5.75204,-49.72468 -25.19356,-71.06954 z"
         sodipodi:nodetypes="ccccc" />
    </g>
  </g>
</svg>
