<?xml version="1.0" encoding="UTF-8" standalone="no"?>
<!-- Created with Inkscape (http://www.inkscape.org/) -->

<svg
   width="2156.0105"
   height="482.05542"
   viewBox="0 0 2156.0105 482.05542"
   version="1.1"
   id="svg5"
   inkscape:version="1.1.1 (3bf5ae0d25, 2021-09-20)"
   sodipodi:docname="ketxup.svg"
   inkscape:export-filename="/home/vokimon/somenergia/somenergia-tomatic/tomatic/static/ketxup.png"
   inkscape:export-xdpi="44.38171"
   inkscape:export-ydpi="44.38171"
   xmlns:inkscape="http://www.inkscape.org/namespaces/inkscape"
   xmlns:sodipodi="http://sodipodi.sourceforge.net/DTD/sodipodi-0.dtd"
   xmlns="http://www.w3.org/2000/svg"
   xmlns:svg="http://www.w3.org/2000/svg">
  <sodipodi:namedview
     id="namedview7"
     pagecolor="#ffffff"
     bordercolor="#666666"
     borderopacity="1.0"
     inkscape:pageshadow="2"
     inkscape:pageopacity="0.0"
     inkscape:pagecheckerboard="0"
     inkscape:document-units="px"
     showgrid="false"
     fit-margin-top="0"
     fit-margin-left="0"
     fit-margin-right="0"
     fit-margin-bottom="0"
     inkscape:zoom="0.70710678"
     inkscape:cx="1650.3872"
     inkscape:cy="395.9798"
     inkscape:window-width="1680"
     inkscape:window-height="985"
     inkscape:window-x="0"
     inkscape:window-y="0"
     inkscape:window-maximized="1"
     inkscape:current-layer="layer1" />
  <defs
     id="defs2" />
  <g
     inkscape:label="Capa 1"
     inkscape:groupmode="layer"
     id="layer1"
     transform="translate(191.52119,-40.044426)">
    <rect
       style="fill:#43372f;fill-opacity:1;stroke:none;stroke-width:5.74267;stroke-linecap:round;stroke-linejoin:round;stroke-miterlimit:12.2"
       id="rect7928"
       width="2156.0105"
       height="482.05542"
       x="-191.52119"
       y="40.044426"
       ry="0"
       inkscape:export-filename="/home/vokimon/somenergia/somenergia-tomatic/tomatic/static/rect7928.png"
       inkscape:export-xdpi="44.38171"
       inkscape:export-ydpi="44.38171" />
    <path
       id="path3559"
       style="fill:#550000;stroke:none;stroke-width:4.5234;stroke-linecap:round;stroke-linejoin:round;stroke-miterlimit:12.2"
       inkscape:transform-center-x="10.527761"
       inkscape:transform-center-y="3.261987"
       d="m 831.57621,42.731834 c -13.06708,0.408137 -25.64631,7.474692 -33.03773,18.21742 -4.97984,7.284409 -7.63544,15.943067 -8.67587,24.648205 -1.25166,10.588974 -0.41293,21.318821 1.37187,31.796271 1.26614,7.4689 3.0654,14.83763 5.06525,22.13921 0.0654,1.22564 -0.72806,2.42019 -1.78183,2.99704 -0.79027,0.39621 -1.69539,0.21703 -2.47411,-0.10502 -24.29635,-7.67715 -48.89758,-14.46173 -73.85849,-19.61981 -15.74294,-3.21414 -31.66497,-5.72388 -47.71839,-6.65859 -10.91839,-0.57594 -21.95809,-0.38714 -32.71538,1.73513 -7.89934,1.58225 -15.68926,4.38 -22.24883,9.14499 -6.66868,4.87483 -11.82851,11.93184 -13.97215,19.94946 -2.2874,8.22223 -1.60298,17.22787 1.90433,25.00919 3.49197,8.07373 9.18772,14.98111 15.51352,21.00464 8.78525,8.35335 18.947,15.08771 29.33041,21.27294 13.70936,8.09449 28.11082,14.94367 42.70263,21.28229 1.45445,0.76867 1.88075,2.8983 0.86962,4.19004 -0.54911,0.89074 -1.66712,0.95685 -2.55816,1.2857 -26.55045,8.17814 -52.86093,17.26478 -78.34045,28.37373 -14.15848,6.22428 -28.06678,13.13188 -41.0679,21.54104 -7.9987,5.23208 -15.64018,11.15192 -21.99024,18.33465 -4.98501,5.67415 -9.04409,12.34774 -10.80008,19.75143 -1.48376,6.20451 -1.24024,12.95883 1.46309,18.80331 2.7723,6.02508 8.04554,10.67569 14.06721,13.31668 6.33758,2.83435 13.21456,4.21764 20.08704,4.95363 10.55339,1.12252 21.19814,1.01469 31.78265,0.44288 14.96532,-0.84072 29.88085,-2.4321 44.72372,-4.50255 3.85392,-0.5227 7.69976,-1.11177 11.54957,-1.65693 0.67697,-0.0252 1.44807,0.28262 1.64036,0.99215 0.42886,0.96557 1.20716,2.01913 0.7613,3.11622 -0.35246,0.59141 -1.0126,0.91418 -1.4936,1.39342 -4.72464,3.94276 -9.40565,7.94245 -13.87285,12.17724 -6.84436,6.46945 -13.31502,13.38497 -18.83148,21.03347 -4.43673,6.23435 -8.1788,13.10813 -9.9683,20.59469 -1.50823,6.37236 -1.38477,13.21656 0.92105,19.38659 2.99365,8.13919 9.38041,14.81896 17.08705,18.6881 6.67532,3.39055 14.31568,4.45362 21.73231,4.06052 8.49351,-0.41833 16.81242,-2.523 24.8317,-5.26171 9.38462,-3.25713 18.42137,-7.44186 27.23414,-12.0078 14.45651,-7.52187 28.28253,-16.19241 41.80575,-25.26842 9.44109,-6.36224 18.68601,-13.01273 27.83753,-19.78329 0.9552,-0.51598 2.14309,-0.18611 3.03228,0.32111 0.90379,0.6024 1.32125,1.76611 1.09463,2.81605 -0.71765,10.92532 -0.59949,21.96515 1.23085,32.78217 1.4273,8.28533 4.00489,16.49733 8.55925,23.62084 4.20431,6.5517 10.18167,12.06798 17.35422,15.19609 7.32219,3.2432 15.5388,4.15132 23.45674,3.2374 10.08549,-1.09143 19.76378,-4.93425 28.18692,-10.52928 9.83825,-6.48729 18.12883,-15.06827 25.28477,-24.37458 6.8291,-8.86942 12.66008,-18.47043 17.83579,-28.38451 0.25103,-0.61967 0.80817,-1.02658 1.44164,-1.20025 0.6522,-0.16497 1.34084,-0.39138 2.01594,-0.28351 1.19848,0.35508 1.85491,1.51425 2.76133,2.28451 18.62656,18.36037 38.04504,35.96127 58.71887,51.99983 12.71899,9.81945 26.00789,18.99143 40.2749,26.42955 9.4104,4.84897 19.38,8.87086 29.8765,10.57017 7.4642,1.17284 15.2703,0.90729 22.4405,-1.62121 7.9731,-2.76814 15.0393,-8.38003 19.0836,-15.83999 3.6766,-6.74666 4.6053,-14.78408 3.2297,-22.29237 -1.4134,-7.95423 -4.8269,-15.40006 -8.8698,-22.3392 -6.7014,-11.41034 -15.2815,-21.56701 -24.1202,-31.36148 -0.5832,-0.5832 -1.2759,-1.38413 -0.9675,-2.2712 0.5965,-0.88679 0.9491,-2.03519 1.9077,-2.61375 0.981,-0.40666 1.9567,0.26479 2.8728,0.55824 16.1743,5.68778 32.4547,11.10266 48.9723,15.7149 12.7726,3.55036 25.6709,6.72125 38.7578,8.8815 9.2983,1.49215 18.7218,2.50435 28.1506,2.15592 7.2893,-0.29115 14.6773,-1.4677 21.3119,-4.62848 5.1675,-2.44422 9.7286,-6.25423 12.7985,-11.09993 3.1596,-4.88111 4.5914,-10.74945 4.5625,-16.53003 -0.021,-6.02523 -1.7051,-11.94644 -4.316,-17.34382 -3.3952,-7.01034 -8.2364,-13.21353 -13.5117,-18.90193 -7.9528,-8.517 -17.0507,-15.8675 -26.3826,-22.80873 -14.7208,-10.86243 -30.3567,-20.4131 -46.2192,-29.50067 -11.0326,-6.30104 -22.2359,-12.30034 -33.5539,-18.07208 -0.8867,-0.68646 -1.2138,-1.95803 -0.9773,-3.02328 0.2998,-1.01059 1.1392,-1.88239 2.2192,-2.00464 2.6271,-0.46067 5.2301,-1.05287 7.8464,-1.57457 24.6091,-5.09677 49.0877,-10.92087 73.1541,-18.18432 14.0839,-4.3085 28.0271,-9.19689 41.3768,-15.44954 7.9687,-3.7833 15.7325,-8.16085 22.5229,-13.83267 4.9724,-4.2044 9.3751,-9.30274 11.8772,-15.37471 2.2688,-5.52601 2.8407,-11.78241 1.3117,-17.57964 -1.8474,-7.27579 -6.5093,-13.68071 -12.5432,-18.08035 -6.3131,-4.68702 -13.7626,-7.56937 -21.305,-9.59963 -10.972,-2.9268 -22.3166,-4.12106 -33.6235,-4.82028 -17.2804,-1.02666 -34.6102,-0.51497 -51.881,0.44878 -28.189,1.61403 -56.2568,4.86896 -84.2161,8.74054 -1.0278,0.17529 -2.2107,0.44511 -3.1096,-0.26392 -1.2424,-0.769 -1.8334,-2.57158 -0.9637,-3.82676 6.7647,-9.30884 13.0372,-19.01039 18.2727,-29.2693 4.1302,-8.1442 7.5764,-16.74423 9.097,-25.78618 1.1195,-6.77341 1.014,-13.88286 -1.2621,-20.41616 -2.1527,-6.35881 -6.3977,-11.929074 -11.7889,-15.899273 -5.1496,-3.810687 -11.3012,-6.122247 -17.589,-7.191863 -6.0078,-1.007051 -12.1913,-0.775166 -18.144,0.479494 -9.5185,1.937009 -18.46104,6.006037 -26.85454,10.806235 -12.55918,7.228711 -23.95005,16.293137 -34.7892,25.864667 -11.82472,10.47137 -22.90246,21.75775 -33.5406,33.42429 -0.49361,0.50651 -0.9355,1.16531 -1.70158,1.2475 -0.82939,0.13515 -1.73986,0.0935 -2.50604,-0.26678 -1.02507,-0.62487 -1.24188,-1.87532 -1.63253,-2.91121 -6.94425,-18.91524 -14.87219,-37.51078 -24.53091,-55.211026 -5.82891,-10.586385 -12.40992,-20.82004 -20.33583,-29.969356 -6.02496,-6.892267 -13.02624,-13.104597 -21.25394,-17.234486 -5.96122,-2.972501 -12.59591,-4.686024 -19.27732,-4.580998 z" />
    <path
       id="path90"
       style="fill:#d40000;stroke:#aa0000;stroke-width:4.5234;stroke-linecap:round;stroke-linejoin:round;stroke-miterlimit:12.2"
       inkscape:transform-center-x="10.527895"
       inkscape:transform-center-y="3.2619861"
       d="m 1196.1839,403.32238 c -7.006,51.29281 -231.96417,-51.09914 -231.96417,-51.09914 0,0 135.75677,100.64262 101.92467,131.34361 -38.3374,34.78913 -162.79105,-100.11777 -162.79105,-100.11777 0,0 -26.94993,77.16886 -72.60108,78.94024 -51.73008,2.00725 -23.61329,-103.57563 -23.61329,-103.57563 0,0 -130.32059,111.2101 -166.43005,83.22307 -40.91784,-31.71381 102.23203,-112.94731 102.23203,-112.94731 0,0 -188.12485,43.66956 -191.3244,9.37143 -3.19954,-34.29813 94.28018,-71.57517 196.08381,-97.95 0,0 -152.32269,-47.81779 -129.89242,-93.16028 22.95431,-46.40184 205.6038,21.93724 205.6038,21.93724 0,0 -42.28923,-92.076655 0.003,-109.354787 47.92363,-19.578885 89.70209,126.782267 89.70209,126.782267 0,0 80.69024,-103.556613 124.19416,-89.607569 49.2969,15.806509 -40.12998,109.594649 -40.12998,109.594649 0,0 208.68358,-38.90829 233.04318,-0.2589 27.6034,43.79597 -199.6869,77.40373 -199.6869,77.40373 0,0 171.8291,74.20989 165.6464,119.47515 z"
       sodipodi:nodetypes="scscscsczcscscscscs" />
    <g
       id="g8258"
       style="fill:#338000"
       transform="matrix(0.64228889,0,0,0.64228889,319.09617,15.28402)">
      <path
         id="path5911"
         style="fill:#338000;stroke:#445016;stroke-width:7.04262;stroke-linecap:round;stroke-linejoin:round;stroke-miterlimit:12.2"
         inkscape:transform-center-x="-15.121691"
         inkscape:transform-center-y="1.7289611"
         transform="matrix(0.95521963,-0.11441312,0.44621677,0.99343326,521.21422,-200.80801)"
         d="m 193.95779,667.42469 c -10.3664,14.18549 -74.33376,-22.24047 -74.33376,-22.24047 0,0 -39.612079,60.81776 -50.506623,58.90017 -17.568615,-3.09232 -1.818451,-77.5683 -1.818451,-77.5683 0,0 -77.492815,-10.10394 -71.6247911,-29.8335 6.4416537,-21.65822 73.2099041,-25.69937 73.2099041,-25.69937 0,0 -15.942946,-74.30365 6.000344,-82.24359 l 47.304377,66.59052 c 0,0 71.68584,-27.85982 75.48137,-17.96419 4.48487,11.69286 -44.12235,63.82293 -44.12235,63.82293 0,0 53.44644,48.39659 40.40998,66.2358 z"
         sodipodi:nodetypes="scscscccscs" />
      <path
         id="rect4216"
         style="fill:#338000;stroke:#445016;stroke-width:7.04262;stroke-linecap:round;stroke-linejoin:round;stroke-miterlimit:12.2"
         d="m 852.37754,300.65995 c 23.47596,-5.95579 22.14855,-10.07215 31.9298,-23.51207 35.53463,40.39029 37.70974,60.62474 26.93315,105.12618 -19.47577,1.77896 -26.53852,4.57009 -33.66939,-10.54457 29.21263,-29.21263 5.75204,-49.72468 -25.19356,-71.06954 z"
         sodipodi:nodetypes="ccccc" />
    </g>
    <path
       id="path12392"
       style="font-variation-settings:normal;opacity:1;fill:#c83737;fill-opacity:1;stroke:#501616;stroke-width:8;stroke-linecap:round;stroke-linejoin:round;stroke-miterlimit:12.2;stroke-dasharray:none;stroke-dashoffset:0;stroke-opacity:1;stop-color:#000000;stop-opacity:1"
       d="m 1462.6062,265.42558 a 18.545574,27.827327 58.604221 0 1 -14.0919,30.32685 18.545574,27.827327 58.604221 0 1 -33.4144,-1.33371 18.545574,27.827327 58.604221 0 1 14.0919,-30.32689 18.545574,27.827327 58.604221 0 1 33.4144,1.33375 z" />
    <path
       id="path12943"
       style="font-variation-settings:normal;opacity:1;fill:#c83737;fill-opacity:1;stroke:#501616;stroke-width:5.84333;stroke-linecap:round;stroke-linejoin:round;stroke-miterlimit:12.2;stroke-dasharray:none;stroke-dashoffset:0;stroke-opacity:1;stop-color:#000000;stop-opacity:1"
       d="m 1624.508,308.81819 a 13.545982,20.325522 77.750708 0 1 -16.9888,17.54996 13.545982,20.325522 77.750708 0 1 -22.7368,-8.9252 13.545982,20.325522 77.750708 0 1 16.9888,-17.54998 13.545982,20.325522 77.750708 0 1 22.7368,8.92522 z" />
  </g>
</svg>
